<?xml version="1.0" encoding="UTF-8"?>
<svg xmlns="http://www.w3.org/2000/svg" version="1.1" viewBox="0 0 1074 336">
  <defs>
    <style>
      .cls-1 {
        fill: #231815;
      }

      .cls-2 {
        fill: #e60012;
      }
    </style>
  </defs>
  <!-- Generator: Adobe Illustrator 28.6.0, SVG Export Plug-In . SVG Version: 1.2.0 Build 709)  -->
  <g>
    <g id="_レイヤー_1" data-name="レイヤー_1">
      <g>
        <polygon class="cls-2" points="86.2 212.7 171.2 212.7 128.7 285.9 44.3 285.9 86.2 212.7"/>
        <polygon class="cls-2" points="171.2 212.7 255.6 212.7 297.5 285.9 213.1 285.9 171.2 212.7"/>
        <polygon class="cls-2" points="171.2 66.7 213.1 140 171.2 212.7 128.7 140 171.2 66.7"/>
      </g>
      <path class="cls-1" d="M495.1,149.2h-132.8v20.9h132.8v-20.9h0ZM947.3,144h-64.8v19h64.8v-19ZM491.9,221.8v-20.9h-125.6v20.9h125.6ZM355.8,278.1h146.6v-20.9h-146.6v20.9ZM979.3,183.9v-20.3h1.3c7.2,0,32.7-1.3,44.5-3.9v-19.6c-28.1,4.6-36.6,4.6-63.5,4.6h-3.3v55.6c0,24.9-2.6,62.2-11.1,86.4h22.2c5.2-14.4,9.8-63.5,10.5-82.4h17v82.4h20.9v-82.4h11.8v-19.6h-49.7l-.7-.7h0ZM947.3,174.1h-62.8v47.1c0,8.5,0,38-8.5,64.8h21.6c3.3-9.2,5.9-30.8,7.2-48.4v-1.3h42.5v-62.2ZM928.3,218.5h-22.9v-25.5h22.9v25.5ZM815.7,140h-20.3v26.8c-4.6,1.3-9.8,2.6-15,3.9v-17.7h-20.3v22.9c-3.9,1.3-7.2,2-7.2,2v21.6s3.3-.7,7.2-2v67.4c0,9.8,5.9,21.6,22.2,21.6h68.7v-20.9h-61.5c-5.9,0-9.2-3.3-9.2-9.2v-64.1c5.2-1.3,9.8-2.6,15-3.9v56.3h20.3v-61.5c9.2-2.6,15-3.9,15-3.9v65.4h19.6v-92.3c-.7,0-21.6,5.9-35.3,9.2v-21.6h.8ZM735.9,187.8h9.8v-20.3h-9.8v-28.1h-20.3v28.1h-11.8v20.3h11.8v60.9c-4.6,1.3-8.5,2-11.8,2.6v22.2c9.8-2,38.6-11.1,48.4-16.4v-19.6c-3.9,2-9.8,3.9-16.4,5.9v-55.6h0ZM667.9,238.8h-73.9c6.5-4.6,11.8-9.8,17-15.7h-23.6c-22.2,17-43.8,20.9-56.9,23.6v15.7c3.3,0,14.4-2,27.5-5.9,4.6,3.9,9.8,7.2,15,10.5-16.4,2.6-32.1,3.9-43.2,3.9v16.4c27.5,0,51.7-3.3,72.6-8.5,20.3,5.9,44.5,8.5,73.9,8.5v-16.4c-13.1,0-28.1-.7-43.8-3.3,15-7.2,26.8-17,34-28.1l1.3-.7h.1ZM603.1,259.8c-8.5-2.6-15.7-5.9-21.6-9.8h47.1c-6.5,3.9-15,6.5-24.9,9.8h-.7.1ZM656.1,140h-19.6v5.9h-64.1v-5.9h-19.6v5.9h-21.6v15h21.6v5.9h19.6v-5.9h64.1v5.9h19.6v-5.9h21.6v-15h-21.6v-5.9ZM614.2,187.8h57.6v-15h-57.6v-6.5h-19.6v6.5h-57.6v15h57.6v7.9h-63.5v15h32.1c-8.5,6.5-22.2,10.5-32.1,11.8v15.7c9.8-1.3,39.9-6.5,57.6-27.5h30.8v11.1c0,7.2,4.6,11.1,13.1,11.1h45.1v-14.4h-34c-4.6,0-4.6-2.6-4.6-4.6v-3.3h38v-15h-63.5v-7.9h.7,0Z"/>
    </g>
  </g>
</svg>