<?xml version="1.0" encoding="UTF-8"?>
<svg xmlns="http://www.w3.org/2000/svg" version="1.1" viewBox="0 0 1074 336">
  <defs>
    <style>
      .cls-1 {
        fill: #009b63;
      }

      .cls-2 {
        fill: #003894;
      }
    </style>
  </defs>
  <!-- Generator: Adobe Illustrator 28.6.0, SVG Export Plug-In . SVG Version: 1.2.0 Build 709)  -->
  <g>
    <g id="_レイヤー_1" data-name="レイヤー_1">
      <path class="cls-2" d="M353.3,216.8c-.2,3.7-1.2,7.3-2.7,10.5,6.1-4.9,12.5-11,18.6-18.9,13.2-17.4,21.6-39.7,21.6-63.2,0-56.6-45.8-102.6-102.6-102.6s-100.9,44.1-102.9,99c0,1.2-.5,10-.5,16.9v120c0,4.7,0,12,.7,19.8.7,11.8,7.8,19.4,18.1,22,2.7.7,5.9,1.2,9.1,1.2,14.9,0,26-8.1,26.9-23,.5-7.8.5-15.2.5-19.8v-128.4c0-21.6,6.9-31.4,6.9-31.4,8.6-13.7,24-22.8,41.4-22.8,26.7,0,48.3,21.6,48.3,48.3s0,3.7,0,4.2c-8.1-8.3-24.3-16.4-38.7-16.4-32.3,0-57.8,25.5-57.8,57.8s25.2,57.1,57.6,57.1,3.9,0,6.6-.2c-14.2-5.6-23.8-20.1-22.5-36,1.5-19.8,18.9-34.5,38.7-33.1,19.8,1.5,34.5,18.9,33.1,38.7"/>
      <path class="cls-1" d="M356.7,247.6c-21.1,0-38,16.9-38,38s16.9,38,38,38,38-16.9,38-38-16.9-38-38-38"/>
      <rect class="cls-2" x="648.5" y="244.2" width="25" height="70.8"/>
      <rect class="cls-2" x="539.5" y="190.5" width="25" height="124.5"/>
      <rect class="cls-2" x="589.7" y="190.5" width="25" height="124.5"/>
      <polygon class="cls-2" points="823.9 227 823.9 190.5 798.9 190.5 798.9 223.4 798.9 237.6 798.9 315 823.9 315 823.9 276 823.9 227"/>
      <polygon class="cls-2" points="888.3 190.5 863.3 190.5 863.3 262.3 841.5 240.5 823.9 258.2 863.3 297.6 863.3 315 888.3 315 888.6 315 888.3 190.5"/>
      <polygon class="cls-2" points="632.3 255.7 688.4 199.6 670.5 181.7 614.7 237.8 632.3 255.7"/>
      <path class="cls-2" d="M473.1,213.8c10.5,2.7,18.1,12,18.1,23.3s-1.2,8.8-3.4,12.2c-4.2,7.1-13.7,12.2-20.8,12.5l34.3,59.5,21.8-12.5-22.8-39.4h0c8.3-7.1,15.7-19.6,15.7-32.1s-5.1-24.3-13.5-32.6c-2-2-3.9-3.7-6.1-5.1,0,0-8.8-6.9-21.1-8.1-9.3-1-16.4-.7-22.5-.7h-26.2v22h25.2c19.4,0,21.6,1,21.6,1"/>
      <polygon class="cls-2" points="426 272.4 426 232.2 451 232.2 451 315 426 315 426 272.4"/>
      <rect class="cls-2" x="698.5" y="190.5" width="75.2" height="24"/>
      <rect class="cls-2" x="698.5" y="291.2" width="75.2" height="23.8"/>
      <rect class="cls-2" x="698.5" y="241" width="75.2" height="24"/>
    </g>
  </g>
</svg>