<?xml version="1.0" encoding="UTF-8"?>
<svg xmlns="http://www.w3.org/2000/svg" version="1.1" viewBox="0 0 1074 336">
  <defs>
    <style>
      .cls-1 {
        fill: #0b8bee;
      }

      .cls-2 {
        fill: #ffcd00;
      }
    </style>
  </defs>
  <!-- Generator: Adobe Illustrator 28.6.0, SVG Export Plug-In . SVG Version: 1.2.0 Build 709)  -->
  <g>
    <g id="_レイヤー_1" data-name="レイヤー_1">
      <path class="cls-1" d="M110.4,270.5c1,.5,1.9,1,2.9,1.6,10.5,5.3,22.3,7.5,33.9,6.2,1.3-.1,2.5.4,3.1,1.5.7,1,.7,2.4,0,3.4-1.4,2.2-2.8,4.4-4.2,6.6-.2.4-.6.5-1,.5-14.1-1.9-27.8-6.5-40.1-13.6-11.9-6.9-20.9-17.7-25.7-30.6-4.8-12.8-3.1-27.2,4.3-38.6,7.5-11.4,20-18.7,33.6-19.5,13.1-.8,26.1-.9,39.1-.4,35.1,1.5,70.1-1.3,104.4-8.3,2.7-.5,5.1,1.5,5.1,4.2.1,25.3-8.6,49.7-24.7,69.1-1.3,1.6-3.7,2-5.5,1-9-5.3-17.4-11.4-25.3-18.3-.2-.2-.6.1-.4.4,7,7.9,13.1,16.2,18.4,25.2,1.1,1.8.7,4.2-.9,5.5-19.3,16.2-43.7,25-68.9,25s-5.1-3-4-5.9c6.8-17.2,8.2-35.9,4.3-53.8-1.5-6.8-4-13.2-7.6-19.1-5.2-8.7-13.7-14.9-23.5-17.1-9.9-2.2-20.2-.2-28.6,5.4-8.4,5.6-14,14.5-15.7,24.5-1.6,10,.9,20.2,7,28.2,5.3,6.9,12,12.8,19.8,17.1l.2-.2h0Z"/>
      <path class="cls-2" d="M53.2,197.8c-.4.2-.6.7-.5,1,3.3,23.5,14.4,45.3,31.5,61.9,6.8,6.5,15,11.4,24,14.1,9.3,2.8,19.3,2.2,28.1-1.9s15.8-11.3,19.8-20.2c4.6-10.6,9.2-21.2,13.9-31.8,15.7-35.9,47.2-62.3,85.3-71.4,2.5-.6,3.9-3.3,3-5.8-6.2-15.2-15.7-28.9-28-39.8-1.5-1.3-3.8-1.5-5.4-.2-12.2,9-22.8,20-31.4,32.4-.2.3-.7,0-.6-.3,5.7-13.5,12.7-26.4,20.9-38.6,1.4-2.1.7-4.9-1.4-6.1-17.7-10.2-37.9-15.1-58.2-14.4-2.3,0-4.1,1.9-4.1,4.2-.4,22.9.8,45.7,3.4,68.5,0,.4-.4.4-.5,0-4.5-22.5-10.5-44.5-18-66.2-.7-2.2-3-3.3-5.2-2.7-19.7,5.5-37.3,16.5-50.9,31.7-1.6,1.9-1.4,4.8.6,6.2,12.7,9.7,24.5,20.7,35.1,32.7.2.3,0,.7-.4.4-13.2-9.7-27.6-17.5-42.9-23.5-2-.7-4.2,0-5.3,1.9-7.9,13.8-12.7,29-14.1,44.8-.2,2.9,2.3,5.1,5.1,4.6,21-4.4,42.9-1.7,62.2,7.6,18.1,8.8,30.5,26.1,33,46,1.5,12-3.8,23.8-13.7,30.8-10,7-22.8,7.9-33.6,2.5-3.7-1.9-7.2-4-10.5-6.5-19.8-14.5-31-38-29.6-62.5,0-2.5-2.4-4.1-4.5-3.1-2.3,1.2-4.7,2.4-6.9,3.7h-.2,0Z"/>
      <path class="cls-1" d="M545.7,111.2c16.6,0,22.1,6.8,35.1,38.2h6.8l-3.3-45.5h-180.8v6.6c18.2,1.8,20.8,3.6,20.8,15.9v75.5c0,32.4-16.6,45.8-43.4,45.8s-36.8-16.5-36.8-44.3v-77.3c0-12.3,2.6-13.7,18.6-15.7v-6.6h-62.9v6.6c15.8,2,18.6,3.3,18.6,15.7v79.1c0,37.9,23,55.5,59.9,55.5s56.4-17.6,56.7-54.8v-79.6c0-12.3,3.2-14,17.8-15.8l-2.8,38.8h6.9c12.6-30.7,18-38.2,35-38.2h14.3v125.8c0,12.3-5.7,13-20.9,15v6.6h67.1v-6.6c-14.9-2-20.6-2.7-20.6-15v-125.7h14-.1Z"/>
      <path class="cls-1" d="M730.4,241.7V86.1h-3.8l-35.1,10.9v3.3l14,7.6v133.7c0,8.2-3.6,9.8-14.6,10.5v6.5h54.1v-6.5c-11.1-.7-14.6-2.2-14.6-10.5h0Z"/>
      <path class="cls-1" d="M920.2,141.8h-36.8v6.5c10.4,1.3,15.2,2.1,15.2,7.2s-.4,3.6-1.3,6.2l-26.4,70.9-28.4-70.8c-.9-2.7-1.3-4.5-1.3-6.2,0-5.1,4-6,15.3-7.4v-6.5h-96.9v6.5c10.4,1.1,14.6,1.6,14.6,5.8s-2.9,5.3-6.5,8.4l-35.1,32.2,50.4,63.9h27.1v-4.7l-54.6-67.8,31.9-29.4c4.8-4.4,8.6-6.4,16-8.1,6.9,1.9,8.2,3.5,10.1,7.9l45.7,105.2-4,10.7c-5.1,13.8-12.8,17.7-24.4,17.7s-9.5-.9-13.7-2v8.7c2,6.7,9.3,10.7,16.4,10.7,14,0,21.1-9.4,27.7-26.3l47.9-124.3c1.8-4.5,3.1-6.5,11.1-8.5v-6.6h0Z"/>
      <path class="cls-1" d="M968.3,253.5c-19.8,0-28.6-26.1-28.6-57s9.3-49.5,27.5-49.5,28.8,25.8,28.8,57-9.5,49.5-27.7,49.5ZM968.3,139.5c-31,0-55,25.2-55,63.3s21.5,57.9,53.9,57.9,55-25.2,55-63.5-21.5-57.7-53.9-57.7h0Z"/>
      <path class="cls-1" d="M633.4,253.5c-19.8,0-26.4-26.1-26.4-57s9.3-49.5,27.5-49.5,28.8,25.8,28.8,57-11.7,49.5-29.9,49.5h0ZM635.6,139.5c-31,0-55,25.2-55,63.3s21.5,57.9,53.9,57.9,55-25.2,55-63.5-21.5-57.7-53.9-57.7h0Z"/>
    </g>
  </g>
</svg>